# xmcd
#
# Track frame offsets: 
#        177
#        21770
#        43717
#        59835
#        85242
#        107805
#        120552
#        145615
#        168997
#        188397
#        212735
#        230145
#
# Disc length: 3289 seconds
#
# Revision: 8
# Processed by: cddbd v1.5.2PL0 Copyright (c) Steve Scherf et al.
# Submitted via: ExactAudioCopy v0.99pb5
#
DISCID=a30cd70c
DTITLE=Тимур Шаов - Сказки нашего времени
DYEAR=2000
DGENRE=Chanson
TTITLE0=Мы поедем на природу
TTITLE1=Частный случай с московским бизнесменом
TTITLE2=Разговор с поэтом
TTITLE3=Говенная песня
TTITLE4=Разговор с критиком
TTITLE5=Верните машину!
TTITLE6=Былина о попсе
TTITLE7=Идея всеобщего братства
TTITLE8=О народной любви
TTITLE9=Сказки нашего времени
TTITLE10=Ода пиву
TTITLE11=Я себе сломал ногу
EXTD=YEAR: 2000
EXTT0=
EXTT1=
EXTT2=
EXTT3=
EXTT4=
EXTT5=
EXTT6=
EXTT7=
EXTT8=
EXTT9=
EXTT10=
EXTT11=
PLAYORDER=
